FFmpeg version SVN-r25716, Copyright (c) 2000-2010 the FFmpeg developers  built on Nov 10 2010 12:23:18 with gcc 4.1.2 20080704 (Red Hat 4.1.2-48)  configuration: --enable-libmp3lame --enable-shared --disable-mmx --arch=x86_64  libavutil     50.33. 0 / 50.33. 0  libavcore      0.12. 1 /  0.12. 1  libavcodec    52.94. 4 / 52.94. 4  libavformat   52.84. 0 / 52.84. 0  libavdevice   52. 2. 2 / 52. 2. 2  libavfilter    1.59. 0 /  1.59. 0  libswscale     0.12. 0 /  0.12. 0Input #0, avi, from '/RAID10/data/converted_video_files/47659.avi':  Duration: 00:00:10.80, start: 0.000000, bitrate: 188381 kb/s    Stream #0.0: Video: msvideo1, rgb555le, 1024x1024, 20 tbr, 20 tbn, 20 tbc[buffer @ 0x77dc2f0] w:1024 h:1024 pixfmt:rgb555le[ffsink @ 0x77f9f70] auto-inserting filter 'auto-inserted scaler 0' between the filter 'src' and the filter 'out'[scale @ 0x77fa290] w:1024 h:1024 fmt:rgb555le -> w:1024 h:1024 fmt:yuv420p flags:0x4Output #0, flv, to '/RAID10/data/converted_video_files/47659.flv':  Metadata:    encoder         : Lavf52.84.0    Stream #0.0: Video: flv, yuv420p, 1024x1024, q=2-31, 600 kb/s, 1k tbn, 24 tbcStream mapping:  Stream #0.0 -> #0.0Press [q] to stop encodingframe=    6 fps=  0 q=7.0 size=     914kB time=0.29 bitrate=25647.4kbits/s    frame=   12 fps= 10 q=14.3 size=    1071kB time=0.58 bitrate=15025.6kbits/s    frame=   20 fps= 12 q=31.0 size=    1079kB time=1.00 bitrate=8845.2kbits/s    frame=   28 fps= 13 q=31.0 size=    1109kB time=1.38 bitrate=6610.0kbits/s    frame=   36 fps= 13 q=31.0 size=    1140kB time=1.79 bitrate=5211.9kbits/s    frame=   47 fps= 15 q=31.0 size=    1172kB time=2.33 bitrate=4116.3kbits/s    frame=   58 fps= 15 q=31.0 size=    1205kB time=2.88 bitrate=3432.1kbits/s    frame=   69 fps= 16 q=24.8 size=    1237kB time=3.46 bitrate=2929.1kbits/s    frame=   78 fps= 16 q=31.0 size=    1242kB time=3.88 bitrate=2625.5kbits/s    frame=   88 fps= 16 q=31.0 size=    1274kB time=4.38 bitrate=2385.2kbits/s    frame=   92 fps= 16 q=31.0 size=    1276kB time=4.58 bitrate=2281.2kbits/s    frame=   99 fps= 16 q=31.0 size=    1306kB time=4.96 bitrate=2157.8kbits/s    frame=  108 fps= 16 q=31.0 size=    1337kB time=5.38 bitrate=2038.2kbits/s    frame=  118 fps= 16 q=31.0 size=    1369kB time=5.88 bitrate=1908.7kbits/s    frame=  129 fps= 16 q=24.8 size=    1401kB time=6.46 bitrate=1776.9kbits/s    frame=  139 fps= 16 q=31.0 size=    1407kB time=6.96 bitrate=1655.9kbits/s    frame=  149 fps= 16 q=31.0 size=    1439kB time=7.46 bitrate=1580.1kbits/s    frame=  160 fps= 17 q=31.0 size=    1471kB time=8.00 bitrate=1506.0kbits/s    frame=  167 fps= 17 q=31.0 size=    1501kB time=8.33 bitrate=1475.2kbits/s    frame=  176 fps= 17 q=31.0 size=    1506kB time=8.79 bitrate=1403.0kbits/s    frame=  187 fps= 16 q=31.0 size=    1538kB time=9.33 bitrate=1349.5kbits/s    frame=  190 fps= 16 q=31.0 size=    1565kB time=9.50 bitrate=1349.8kbits/s    frame=  199 fps= 16 q=31.0 size=    1570kB time=9.96 bitrate=1291.5kbits/s    frame=  210 fps= 16 q=31.0 size=    1602kB time=10.50 bitrate=1249.9kbits/s    frame=  216 fps= 16 q=31.0 size=    1631kB time=10.79 bitrate=1238.3kbits/s    frame=  216 fps= 16 q=31.0 Lsize=    1631kB time=10.79 bitrate=1238.3kbits/s    video:1628kB audio:0kB global headers:0kB muxing overhead 0.219934%